<svg width="60" height="60" viewBox="0 0 60 60" fill="none" xmlns="http://www.w3.org/2000/svg"><g filter="url(#filter0_i_385_7987)"><path d="M56 0H0l60 60V4a4 4 0 00-4-4z" fill="#0052D9"/></g><g clip-path="url(#clip0_385_7987)"><path d="M41.75 18.25V27H33v-8.75h8.75zm8.75 0v2.5h1.25v-2.5H53v5h-5v-2.5h-1.25V27h-2.5v-8.75h6.25zm0 6.25V27H48v-2.5h2.5zm2.5 0V27h-1.25v-2.5H53zm-13.75-3.75H35.5v3.75h3.75v-3.75zM41.75 7v8.75H33V7h8.75zM53 7v8.75h-8.75V7H53zM39.25 9.5H35.5v3.75h3.75V9.5zm11.25 0h-3.75v3.75h3.75V9.5z" fill="#fff"/></g><defs><clipPath id="clip0_385_7987"><path fill="#fff" transform="translate(33 7)" d="M0 0h20v20H0z"/></clipPath><filter id="filter0_i_385_7987" x="0" y="0" width="60" height="60" filterUnits="userSpaceOnUse" color-interpolation-filters="sRGB"><feFlood flood-opacity="0" result="BackgroundImageFix"/><feBlend in="SourceGraphic" in2="BackgroundImageFix" result="shape"/><feColorMatrix in="SourceAlpha" values="0 0 0 0 0 0 0 0 0 0 0 0 0 0 0 0 0 0 127 0" result="hardAlpha"/><feOffset dx="-2" dy="2"/><feComposite in2="hardAlpha" operator="arithmetic" k2="-1" k3="1"/><feColorMatrix values="0 0 0 0 1 0 0 0 0 1 0 0 0 0 1 0 0 0 0.1 0"/><feBlend in2="shape" result="effect1_innerShadow_385_7987"/></filter></defs></svg>